<?xml version="1.0" encoding="UTF-8"?>
<svg width="1280px" height="850px" viewBox="0 0 1280 850" version="1.1" xmlns="http://www.w3.org/2000/svg" xmlns:xlink="http://www.w3.org/1999/xlink">
    <!-- Generator: Sketch 43.2 (39069) - http://www.bohemiancoding.com/sketch -->
    <title>Desktop Landscape</title>
    <desc>Created with Sketch.</desc>
    <defs></defs>
    <g id="Page-1" stroke="none" stroke-width="1" fill="none" fill-rule="evenodd">
        <g id="Desktop-Landscape">
            <path d="M977,0 L977,846" id="Line" stroke="#9AC8FF" stroke-width="6" stroke-linecap="square"></path>
            <path d="M1024,0 L1024,846" id="Line" stroke="#9AC8FF" stroke-width="6" stroke-linecap="square"></path>
            <path d="M1071,0 L1071,846" id="Line" stroke="#9AC8FF" stroke-width="6" stroke-linecap="square"></path>
            <path d="M1165,0 L1165,846" id="Line" stroke="#9AC8FF" stroke-width="6" stroke-linecap="square"></path>
            <path d="M1215,0 L1215,846" id="Line" stroke="#9AC8FF" stroke-width="6" stroke-linecap="square"></path>
            <path d="M1118,0 L1118,846" id="Line" stroke="#9AC8FF" stroke-width="6" stroke-linecap="square"></path>
            <path d="M36,0 L36,846" id="Line" stroke="#9AC8FF" stroke-width="6" stroke-linecap="square"></path>
            <path d="M83,0 L83,846" id="Line" stroke="#9AC8FF" stroke-width="6" stroke-linecap="square"></path>
            <path d="M130,0 L130,846" id="Line" stroke="#9AC8FF" stroke-width="6" stroke-linecap="square"></path>
            <path d="M130,0 L130,846" id="Line" stroke="#9AC8FF" stroke-width="6" stroke-linecap="square"></path>
            <path d="M224,0 L224,846" id="Line" stroke="#9AC8FF" stroke-width="6" stroke-linecap="square"></path>
            <path d="M177,0 L177,846" id="Line" stroke="#9AC8FF" stroke-width="6" stroke-linecap="square"></path>
            <path d="M271,0 L271,846" id="Line" stroke="#9AC8FF" stroke-width="6" stroke-linecap="square"></path>
            <path d="M318,0 L318,846" id="Line" stroke="#9AC8FF" stroke-width="6" stroke-linecap="square"></path>
            <path d="M365,0 L365,846" id="Line" stroke="#9AC8FF" stroke-width="6" stroke-linecap="square"></path>
            <path d="M365,0 L365,846" id="Line" stroke="#9AC8FF" stroke-width="6" stroke-linecap="square"></path>
            <path d="M459,0 L459,255" id="Line" stroke="#9AC8FF" stroke-width="6" stroke-linecap="square"></path>
            <path d="M412,0 L412,255" id="Line" stroke="#9AC8FF" stroke-width="6" stroke-linecap="square"></path>
            <path d="M318,0 L318,846" id="Line" stroke="#9AC8FF" stroke-width="6" stroke-linecap="square"></path>
            <path d="M365,0 L365,846" id="Line" stroke="#9AC8FF" stroke-width="6" stroke-linecap="square"></path>
            <path d="M365,0 L365,846" id="Line" stroke="#9AC8FF" stroke-width="6" stroke-linecap="square"></path>
            <path d="M506,0 L506,256" id="Line" stroke="#9AC8FF" stroke-width="6" stroke-linecap="square"></path>
            <path d="M553,0 L553,256" id="Line" stroke="#9AC8FF" stroke-width="6" stroke-linecap="square"></path>
            <path d="M600,0 L600,256" id="Line" stroke="#9AC8FF" stroke-width="6" stroke-linecap="square"></path>
            <path d="M694,0 L694,256" id="Line" stroke="#9AC8FF" stroke-width="6" stroke-linecap="square"></path>
            <path d="M647,0 L647,255" id="Line" stroke="#9AC8FF" stroke-width="6" stroke-linecap="square"></path>
            <path d="M741,0 L741,255" id="Line" stroke="#9AC8FF" stroke-width="6" stroke-linecap="square"></path>
            <path d="M788,0 L788,255" id="Line" stroke="#9AC8FF" stroke-width="6" stroke-linecap="square"></path>
            <path d="M835,0 L835,255" id="Line" stroke="#9AC8FF" stroke-width="6" stroke-linecap="square"></path>
            <path d="M929,0 L929,846" id="Line" stroke="#9AC8FF" stroke-width="6" stroke-linecap="square"></path>
            <path d="M882,0 L882,256" id="Line" stroke="#9AC8FF" stroke-width="6" stroke-linecap="square"></path>
            <g id="Group-3" transform="translate(-8.000000, -163.000000)" stroke="#9AC9FF" stroke-width="6" stroke-linecap="square">
                <path d="M651.556385,-411.583739 L651.556385,891.303492" id="Line" transform="translate(651.556385, 239.859877) rotate(270.000000) translate(-651.556385, -239.859877) "></path>
                <path d="M651.556385,-458.583739 L651.556385,844.303492" id="Line" transform="translate(651.556385, 192.859877) rotate(270.000000) translate(-651.556385, -192.859877) "></path>
                <path d="M651.556385,341.416261 L651.556385,1644.30349" id="Line" transform="translate(651.556385, 992.859877) rotate(270.000000) translate(-651.556385, -992.859877) "></path>
                <path d="M651.556385,294.416261 L651.556385,1597.30349" id="Line" transform="translate(651.556385, 945.859877) rotate(270.000000) translate(-651.556385, -945.859877) "></path>
                <path d="M651.556385,247.416261 L651.556385,1550.30349" id="Line" transform="translate(651.556385, 898.859877) rotate(270.000000) translate(-651.556385, -898.859877) "></path>
                <path d="M651.556385,200.416261 L651.556385,1503.30349" id="Line" transform="translate(651.556385, 851.859877) rotate(270.000000) translate(-651.556385, -851.859877) "></path>
                <path d="M651.556385,200.416261 L651.556385,1503.30349" id="Line" transform="translate(651.556385, 851.859877) rotate(270.000000) translate(-651.556385, -851.859877) "></path>
                <path d="M198.112769,560.859877 L198.112769,955.747108" id="Line" transform="translate(197.612769, 758.359877) rotate(270.000000) translate(-197.612769, -758.359877) "></path>
                <path d="M651.556385,153.416261 L651.556385,1456.30349" id="Line" transform="translate(651.556385, 804.859877) rotate(270.000000) translate(-651.556385, -804.859877) "></path>
                <path d="M651.556385,247.416261 L651.556385,1550.30349" id="Line" transform="translate(651.556385, 898.859877) rotate(270.000000) translate(-651.556385, -898.859877) "></path>
                <path d="M651.556385,200.416261 L651.556385,1503.30349" id="Line" transform="translate(651.556385, 851.859877) rotate(270.000000) translate(-651.556385, -851.859877) "></path>
                <path d="M651.556385,200.416261 L651.556385,1503.30349" id="Line" transform="translate(651.556385, 851.859877) rotate(270.000000) translate(-651.556385, -851.859877) "></path>
                <path d="M651.556385,153.416261 L651.556385,1456.30349" id="Line" transform="translate(651.556385, 804.859877) rotate(270.000000) translate(-651.556385, -804.859877) "></path>
                <path d="M186.112769,525.859877 L186.112769,896.747108" id="Line" transform="translate(185.612769, 711.359877) rotate(270.000000) translate(-185.612769, -711.359877) "></path>
                <path d="M186.612769,477.359877 L186.612769,850.247108" id="Line" transform="translate(186.612769, 663.859877) rotate(270.000000) translate(-186.612769, -663.859877) "></path>
                <path d="M186.112769,430.859877 L186.112769,802.747108" id="Line" transform="translate(186.112769, 616.859877) rotate(270.000000) translate(-186.112769, -616.859877) "></path>
                <path d="M187.056385,335.916261 L187.056385,709.803492" id="Line" transform="translate(187.056385, 522.859877) rotate(270.000000) translate(-187.056385, -522.859877) "></path>
                <path d="M186.612769,383.359877 L186.612769,756.247108" id="Line" transform="translate(186.612769, 569.859877) rotate(270.000000) translate(-186.612769, -569.859877) "></path>
                <path d="M184.612769,291.359877 L184.612769,660.247108" id="Line" transform="translate(184.612769, 475.859877) rotate(270.000000) translate(-184.612769, -475.859877) "></path>
                <path d="M189.612769,240.359877 L189.612769,618.247108" id="Line" transform="translate(189.112769, 429.359877) rotate(270.000000) translate(-189.112769, -429.359877) "></path>
                <path d="M651.556385,-269.583739 L651.556385,1033.30349" id="Line" transform="translate(651.556385, 381.859877) rotate(270.000000) translate(-651.556385, -381.859877) "></path>
                <path d="M651.556385,-363.583739 L651.556385,939.303492" id="Line" transform="translate(651.556385, 287.859877) rotate(270.000000) translate(-651.556385, -287.859877) "></path>
                <path d="M651.556385,-316.583739 L651.556385,986.303492" id="Line" transform="translate(651.556385, 334.859877) rotate(270.000000) translate(-651.556385, -334.859877) "></path>
            </g>
            <path d="M388.99744,591.681387 L0,850 L1280,850 L1280,0 L891.00256,258.318613 C902.907075,260.23334 912,270.54809 912,283.00181 L912,566.99819 C912,580.806308 900.809317,592 886.998933,592 L393.001067,592 C391.63831,592 390.301018,591.891055 388.99744,591.681387 Z" id="Combined-Shape" fill="#004698"></path>
            <path d="M910.207191,271.503618 L1315,-8.52651283e-12 L1315,-43 L862.657335,258 L887.998933,258 C897.662598,258 906.045691,263.47838 910.207191,271.503618 Z M432.369615,592 L2.27373675e-13,882 L-27,850 L374.596257,582.767915 C379.180388,588.402689 386.170292,592 394.001067,592 L432.369615,592 Z" id="Combined-Shape" fill="#212121"></path>
            <path d="M372.596973,270 C365.624662,274.4365 361,282.232653 361,291.109244 L361,575.105625 C361,588.923062 372.193359,600.107434 386.001067,600.107434 L879.998933,600.107434 C889.818209,600.107434 898.313146,594.448682 902.403027,586.214869 C898.529453,588.679635 893.93127,590.107434 888.998933,590.107434 L395.001067,590.107434 C381.193359,590.107434 370,578.923062 370,565.105625 L370,281.109244 C370,277.118791 370.934614,273.346687 372.596973,270 Z" id="Combined-Shape" fill="#CBCBCB"></path>
        </g>
    </g>
</svg>